<svg xmlns="http://www.w3.org/2000/svg" width="116.905" height="47.543" viewBox="0 0 116.905 47.543">
  <g id="cmg-logo-news" transform="translate(0 -0.004)">
    <path id="Path_18" data-name="Path 18" d="M46.025,429.2a23.75,23.75,0,1,0,16.815,6.956A23.771,23.771,0,0,0,46.025,429.2Zm-8.946,28.663a5.073,5.073,0,0,0,3.252-1.169.452.452,0,0,1,.62.036l1.9,2.008a.463.463,0,0,1-.036.657,8.242,8.242,0,0,1-5.878,2.337,8.746,8.746,0,1,1,0-17.492,8.278,8.278,0,0,1,5.878,2.265.473.473,0,0,1,.036.693l-1.9,1.972a.419.419,0,0,1-.62,0,4.9,4.9,0,1,0-3.25,8.691Zm26.327,3.614H60.559a.5.5,0,0,1-.474-.4l-1.095-7.485h-.036L54.9,461.4a.555.555,0,0,1-.4.255H54.06a.5.5,0,0,1-.4-.255l-4.091-7.85h-.036l-1.058,7.486a.51.51,0,0,1-.474.4H45.149a.464.464,0,0,1-.474-.548l2.7-16.25a.5.5,0,0,1,.438-.4h.4a.555.555,0,0,1,.4.255l5.623,10.48h.036L59.9,444.5a.553.553,0,0,1,.4-.255h.4a.5.5,0,0,1,.438.4l2.738,16.287a.464.464,0,0,1-.473.546Z" transform="translate(-22.254 -429.196)" fill="#49b5a5"/>
    <g id="Group_21" data-name="Group 21" transform="translate(52.884 15.023)">
      <path id="Path_19" data-name="Path 19" d="M73.068,444.071a.456.456,0,0,1,.461-.437h.607l10.939,13.627h.049V444.337a.459.459,0,0,1,.46-.46h.849a.476.476,0,0,1,.461.46v16.322a.457.457,0,0,1-.461.437h-.441l-11.13-13.9h-.024v13.192a.46.46,0,0,1-.461.461h-.849a.477.477,0,0,1-.461-.461Z" transform="translate(-73.068 -443.63)" fill="#3f5866"/>
      <path id="Path_20" data-name="Path 20" d="M90.9,444.328a.46.46,0,0,1,.461-.46h9.554a.46.46,0,0,1,.461.46v.7a.46.46,0,0,1-.461.461H92.765v5.917h6.96a.477.477,0,0,1,.461.46v.7a.462.462,0,0,1-.461.462h-6.96v6.184h8.148a.46.46,0,0,1,.461.46v.7a.46.46,0,0,1-.461.461H91.359a.46.46,0,0,1-.461-.461Z" transform="translate(-72.342 -443.621)" fill="#3f5866"/>
      <path id="Path_21" data-name="Path 21" d="M103.266,444.456a.421.421,0,0,1,.436-.581h1.02a.5.5,0,0,1,.437.339l3.371,12.56h.1l4.05-12.879a.411.411,0,0,1,.412-.266h.436a.434.434,0,0,1,.412.266l4.122,12.879h.1l3.3-12.56a.5.5,0,0,1,.436-.339h1.02a.422.422,0,0,1,.436.581l-4.583,16.3a.467.467,0,0,1-.436.339h-.388a.491.491,0,0,1-.412-.267l-4.2-13.118h-.122l-4.126,13.118a.49.49,0,0,1-.412.267h-.388a.467.467,0,0,1-.436-.339Z" transform="translate(-71.834 -443.628)" fill="#3f5866"/>
      <path id="Path_22" data-name="Path 22" d="M124.5,458.3c.122-.145.242-.314.364-.46.242-.316.51-.51.848-.219a6.7,6.7,0,0,0,4.1,1.842c1.964,0,3.252-1.236,3.252-2.666,0-1.674-1.455-2.668-4.243-3.832-2.668-1.164-4.272-2.255-4.272-5.02,0-1.649,1.31-4.316,5.164-4.316a7.932,7.932,0,0,1,4.144,1.236.541.541,0,0,1,.146.824c-.1.146-.194.316-.291.46a.547.547,0,0,1-.848.219,6.806,6.806,0,0,0-3.178-1.114c-2.569,0-3.346,1.649-3.346,2.668,0,1.625,1.236,2.569,3.274,3.419,3.273,1.334,5.383,2.569,5.383,5.384,0,2.522-2.4,4.365-5.238,4.365a7.9,7.9,0,0,1-5.116-1.965.532.532,0,0,1-.141-.824Z" transform="translate(-70.977 -443.63)" fill="#3f5866"/>
    </g>
  </g>
</svg>
